<svg width="48" height="48" xmlns="http://www.w3.org/2000/svg">

 <g>
  <title>Layer 1</title>
  <path fill="none" stroke-width="null" id="svg_23" d="m9.41743,34.2968c0.39951,0 1.07606,0.15541 1.59805,0.21306c0.3691,0.04077 0.74019,0.01844 1.19854,0.10653c0.72471,0.13929 1.57173,0.33497 2.39707,0.42614c1.1672,0.12892 1.73636,0.28822 2.39707,0.53266c0.52234,0.19325 0.39951,0.3196 0.39951,0.6392c0,0.31959 -1.32562,0.80859 -2.39707,1.06532c-2.32093,0.55613 -4.04037,1.04776 -6.39219,1.49146c-1.63068,0.30765 -3.99512,0.53266 -5.59317,0.6392c-1.59805,0.10653 -1.99756,0.21306 -2.79658,0.21306l-0.39952,0" stroke="null"/>
  <path fill="none" stroke="null" stroke-width="null" stroke-opacity="null" fill-opacity="null" id="svg_24" d="m5.15578,59.52293c-0.10051,0 -0.10051,0.1005 -0.10051,0.201c0,0.10051 0,0.20101 0,0.40201c0,0.30151 -0.04829,0.60691 0,0.90453c0.05091,0.31371 0.03123,0.61107 0.10051,0.90452c0.05163,0.21872 0.1005,0.50251 0.1005,0.70352c0,0.201 0.04611,0.27069 0.1005,0.40201c0.07692,0.1857 -0.0309,0.4207 0.1005,0.60301c0.08311,0.1153 0.06961,0.3202 0.20101,0.50251c0.0831,0.1153 0.1701,0.2197 0.3015,0.40202c0.08311,0.1153 0.20101,0.201 0.30151,0.3015c0.1005,0.10051 0.09533,0.23103 0.20101,0.40201c0.11814,0.19117 0.2706,0.2197 0.40201,0.40201c0.0831,0.1153 0.28386,0.11034 0.40201,0.30151c0.05283,0.0855 0.0857,0.2184 0.201,0.30151c0.18231,0.1314 0.21085,0.18336 0.40201,0.30151c0.08549,0.05283 0.20101,0.1005 0.30151,0.1005l0,0.1005l0.1005,0"/>
  <path fill="none" stroke="null" stroke-width="null" stroke-opacity="null" fill-opacity="null" id="svg_25" d="m10.88442,64.74906c0.1005,0 0.1005,0.1005 0.20101,0.1005c0.1005,0 0.201,0.10051 0.3015,0.10051c0.10051,0 0.2838,0.04886 0.50252,0.1005c0.29344,0.06927 0.48479,0.14937 0.70351,0.201c0.19563,0.04618 0.50381,0.08441 0.60302,0.1005c0.31371,0.05092 0.43316,0.13443 0.70352,0.30151c0.1209,0.07472 0.3202,0.17011 0.50251,0.30151c0.2306,0.16622 0.3202,0.27061 0.50251,0.40201c0.23061,0.16622 0.32278,0.27278 0.60302,0.50251c0.21983,0.18022 0.44812,0.3712 0.50251,0.50251c0.03846,0.09286 0.1005,0.10051 0.201,0.20101l0.10051,0.10051l0,0.1005"/>
  <path fill="none" stroke="null" stroke-width="null" stroke-opacity="null" fill-opacity="null" id="svg_26" d="m10.2814,38.71891c0,0.1005 0.02944,0.12994 0.10051,0.201c0.07106,0.07107 0.06204,0.10815 0.1005,0.20101c0.10878,0.26262 0.32229,0.48368 0.50251,0.70352c0.22974,0.28023 0.43102,0.69028 0.60302,1.10552c0.12162,0.29363 0.27691,0.61628 0.50251,1.00503c0.18188,0.31342 0.49343,0.63398 0.70352,1.00502c0.20416,0.3606 0.33542,0.73468 0.50251,1.00503c0.22417,0.36272 0.37111,0.52121 0.50251,0.70352c0.08311,0.1153 0.23044,0.33094 0.30151,0.40201c0.07107,0.07106 0.12994,0.02943 0.20101,0.1005c0.07106,0.07106 0.06969,0.14661 0.201,0.201c0.09285,0.03846 0.20101,0 0.30151,0c0.1005,0 0.1005,0.10051 0.201,0.10051l0.10051,0"/>
  <path fill="none" stroke="null" stroke-width="null" stroke-opacity="null" fill-opacity="null" id="svg_27" d="m14.60301,42.337c0.10051,0 0.20101,0 0.40201,0c0.10051,0 0.30151,0 0.60302,0c0.201,0 0.50251,0.1005 0.70352,0.1005c0.201,0 0.3015,0 0.50251,0l0.1005,0l0.1005,0l0.10051,0" transform="rotate(65.25244903564453 15.859294891357434,42.387248992919915) "/>
  <rect fill="none" stroke="#000000" stroke-width="NaN" stroke-opacity="0" x="6.56281" y="15.50283" width="15.57789" height="12.66332" id="svg_29"/>
  <ellipse fill="#ffffff" stroke-width="1.3" cx="23.97963" cy="23.97953" id="svg_33" rx="23.31495" ry="23.23482" stroke="#000000"/>
  <path transform="rotate(0.10334 22.434 25.0481)" d="m18.35545,20.474l-7.98528,0c-0.4831,0 -0.66978,-0.61489 -0.26587,-0.87415l24.12552,-15.47982c0.39146,-0.25042 0.88248,0.12963 0.72408,0.56061l-15.16954,41.06051c-0.18556,0.50188 -0.94358,0.37114 -0.94358,-0.16178l0,-24.62896c0.00114,-0.26371 -0.21723,-0.47641 -0.48533,-0.47641z" fill="#0000ff" id="svg_1" stroke="null"/>
 </g>
</svg>